<?xml version="1.0" encoding="utf-8"?>
<!-- Generator: Adobe Illustrator 27.0.1, SVG Export Plug-In . SVG Version: 6.00 Build 0)  -->
<svg version="1.1" id="Layer_1" xmlns="http://www.w3.org/2000/svg" xmlns:xlink="http://www.w3.org/1999/xlink" x="0px" y="0px"
	 viewBox="0 0 841.9 595.3" style="enable-background:new 0 0 841.9 595.3;" xml:space="preserve">
<path d="M541.8,270.4c16.5,0,27.2,15.6,26.8,39.6l-58.8,15.2C507.9,289.1,524.3,270.4,541.8,270.4z M543.4,267.4
	c-30.9,0-54,22.7-54,57.5c0,32.5,21.3,54,50,54c18.9,0,34.8-9,46.2-26.5l-2.4-1.4c-9.2,13.3-23.5,19.3-35.6,19.3
	c-19.6,0-34.8-14.4-37.5-41.8l76.4-19.8C584.8,283.8,569.6,267.4,543.4,267.4z"/>
<path d="M652.2,270.4c16.5,0,27.2,15.6,26.8,39.6l-58.8,15.2C618.4,289.1,634.8,270.4,652.2,270.4z M653.8,267.4
	c-30.9,0-54,22.7-54,57.5c0,32.5,21.3,54,50,54c18.9,0,34.8-9,46.2-26.5l-2.4-1.4c-9.2,13.3-23.5,19.3-35.6,19.3
	c-19.6,0-34.8-14.4-37.5-41.8l76.4-19.8C695.2,283.8,680,267.4,653.8,267.4z"/>
<g>
	<path d="M229.5,339.1c0-21.7-13.5-36.4-35.6-36.4h-29.3v69.1c4.2,1,15.5,1.4,20.7,1.4C216.1,373.3,229.5,360.6,229.5,339.1
		 M187.5,233.4h-22.9v66.1h25.9c19.7,0,30.9-14.5,30.9-33C221.5,248.5,211,233.4,187.5,233.4 M252,336.3c0,24.7-21.9,40.2-60.7,40.2
		h-47.2V230.2h48.4c33.6,0,50.6,13.1,50.6,34.2c0,19.5-17.1,31.1-35.4,34.8v0.4C232.5,301.1,252,314,252,336.3"/>
	<path d="M348.9,323.8c0-32.1-13.9-53.6-33.8-53.6c-20.1,0-33.2,20.7-33.2,52.4c0,32.1,13.9,53.4,33.8,53.4
		C335.8,376.1,348.9,355.4,348.9,323.8 M261.5,323.8c0-34,23.5-56.5,54.9-56.5c30.5,0,53,21.1,53,55.3c0,34-23.5,56.3-54.9,56.3
		C284,378.9,261.5,358,261.5,323.8"/>
	<path d="M454.5,244.5h-0.4c-16.1-7.6-27.3-10.6-39.4-10.6h-8.7v142.7h-20.5V233.8h-8.9c-12.1,0-23.3,3-39.4,10.6h-0.4l2.8-14.3
		h112.2L454.5,244.5z"/>
	<path d="M303,241.8V241c0-0.4,0-0.8,0-0.8c0.5-5.8,3.4-9.9,7.5-9.9c3.9,0,6.4,3.7,6.3,9.3l-13.8,3.6C303,242.8,303,242.3,303,241.8
		 M321,239.1c-0.5-5.7-4-9.5-10.1-9.5c-7.3,0-12.7,5.3-12.7,13.5c0,7.7,5,12.7,11.8,12.7c4.4,0,8.2-2.1,10.9-6.2l-0.6-0.3
		c-2.2,3.1-5.5,4.5-8.4,4.5c-4.6,0-8.2-3.4-8.8-9.8l18-4.7V239.1z"/>
	<path d="M269.3,253.8c-2,1.3-4,2.2-6.7,2.2c-5.8,0-6.2-4.5-6.2-6.5v-18.3h-3.7v-0.8l3.5-0.2l4.5-8.1h0.2v8.1h8.1l-0.6,1H261v18.2
		c0,1.4,0,5,3.9,5c1.1,0,2.5-0.3,4.1-1.2L269.3,253.8z"/>
	<path d="M294.8,238.6v16.8h-4.5v-16.9c0-1.9,0-7.2-5.6-7.2c-2.5,0-4.8,1-7.3,3.4v20.7H273v-37.1l4.3-1.4h0.2v16.9
		c2.7-2.6,5.4-4.2,9.3-4.2C292,229.6,294.8,232.5,294.8,238.6"/>
	<path d="M485.2,283.3c2.5-4.1,5.5-7.9,8.8-11.4c0.7-0.7,1.3-1.3,2-2c-3.2-1.1-7.6-2.1-13.2-2.1c-14.1,0-25.3,10-32.8,26.3v-26.5
		h-0.8l-17.9,5.4v103.5h19.1v-76.5c5-10.6,14.3-18.5,25.1-18.5C478.4,281.4,481.9,282,485.2,283.3"/>
</g>
</svg>
